<svg width="25" height="25" viewBox="0 0 25 25" fill="none" xmlns="http://www.w3.org/2000/svg">
<path fill-rule="evenodd" clip-rule="evenodd" d="M23.2143 12.5C23.2143 6.60714 18.3929 1.78571 12.5 1.78571C6.60714 1.78571 1.78571 6.60714 1.78571 12.5C1.78571 18.3929 6.60714 23.2143 12.5 23.2143C18.3929 23.2143 23.2143 18.3929 23.2143 12.5ZM0 12.5C0 5.625 5.625 0 12.5 0C19.375 0 25 5.625 25 12.5C25 19.375 19.375 25 12.5 25C5.625 25 0 19.375 0 12.5ZM13.3929 11.6071H19.6429V13.3929H13.3929V19.6429H11.6071V13.3929H5.35714V11.6071H11.6071V5.35714H13.3929V11.6071Z" fill="#FEFEFE"/>
</svg>
