<svg width="48" height="37" viewBox="0 0 48 37" fill="none" xmlns="http://www.w3.org/2000/svg">
<path d="M32.5 12H2.5C1.83696 12 1.20107 12.2634 0.732233 12.7322C0.263392 13.2011 0 13.837 0 14.5V34.5C0 35.163 0.263392 35.7989 0.732233 36.2678C1.20107 36.7366 1.83696 37 2.5 37H32.5C33.163 37 33.7989 36.7366 34.2678 36.2678C34.7366 35.7989 35 35.163 35 34.5V14.5C35 13.837 34.7366 13.2011 34.2678 12.7322C33.7989 12.2634 33.163 12 32.5 12ZM29.75 14.5L17.5 22.975L5.25 14.5H29.75ZM2.5 34.5V15.6375L16.7875 25.525C16.9967 25.6702 17.2453 25.7479 17.5 25.7479C17.7547 25.7479 18.0033 25.6702 18.2125 25.525L32.5 15.6375V34.5H2.5Z" fill="#1F1F1F"/>
<path d="M48 12C48 18.6274 42.1797 24 35 24C27.8203 24 22 18.6274 22 12C22 5.37258 27.8203 0 35 0C42.1797 0 48 5.37258 48 12Z" fill="#E92D2D"/>
</svg>
