<svg width="90" height="90" viewBox="0 0 90 90" fill="none" xmlns="http://www.w3.org/2000/svg">
<path fill-rule="evenodd" clip-rule="evenodd" d="M37.8236 33.6738C37.7627 33.4369 37.6992 33.1958 37.6334 32.9508L37.6248 32.9522C37.5912 32.7484 37.4513 32.1247 37.1575 31.2368L37.1391 31.1988C35.4196 25.3671 32.495 17.9027 28.5071 11.7419C23.8616 4.56518 17.6889 -0.964847 10.2142 0.141322L10.2716 0.527281L10.2698 0.527275L10.19 0.17132C8.18368 0.618353 6.51432 1.47984 5.14618 2.5345C5.043 2.61281 4.94199 2.69184 4.8431 2.77149C4.3679 2.97553 3.94068 3.37401 3.59689 3.77797C3.37793 4.03524 3.17969 4.31049 3.01027 4.57268C2.89512 4.71109 2.78522 4.84923 2.68043 4.98665C1.25346 6.79689 0.43668 8.68781 0.112493 9.93159L0.100091 9.93012C-0.831141 17.748 4.85526 24.0532 12.176 28.7298C19.243 33.2444 27.9357 36.3117 34.0487 37.8247C34.2587 37.8697 34.5443 37.9208 34.8024 37.94L36.0299 37.9416L39.8596 41.7607L11.0161 70.185C9.8228 71.361 9.81141 73.2789 10.9906 74.4689L12.5578 76.0503L11.9077 76.6986C10.7367 77.6909 8.81497 79.0193 6.84436 79.5005C6.44097 79.599 6.25762 79.6634 6.24779 79.7004C5.68866 79.9191 5.16458 80.2537 4.71276 80.7043L3.80914 81.6054C2.05344 83.3562 2.05344 86.1948 3.80914 87.9456L4.55246 88.6869C6.30816 90.4377 9.15471 90.4377 10.9104 88.6869L11.814 87.7858C12.2932 87.308 12.6415 86.7492 12.8592 86.1535C12.8966 86.1143 12.9548 85.9291 13.0381 85.5634C13.5794 83.1892 15.3413 80.8683 16.2901 79.8517L16.3076 79.8343L17.6278 81.1665C18.8071 82.3565 20.7304 82.3679 21.9237 81.1919L50.3482 53.1806L39.3911 42.2539L39.8727 41.7737L55.6243 57.4814L55.7078 57.3982C56.5108 59.6186 59.0701 63.2462 62.664 67.1929L67.1803 72.5535C67.3487 72.8792 67.5698 73.1848 67.8436 73.4578L74.7083 80.3034C76.1318 81.723 78.4399 81.723 79.8634 80.3034L80.5148 79.6539C81.9383 78.2343 81.9383 75.9327 80.5148 74.5131L73.6501 67.6676C73.4422 67.4603 73.2155 67.2833 72.9754 67.1365L67.7061 62.5387C63.4223 58.633 59.4905 55.9159 57.2835 55.293L41.7995 39.8522L42.0725 39.58L41.7979 39.8506L37.974 36.0373L37.9759 34.5405L37.9755 34.5187C37.9741 34.4556 37.9729 34.3978 37.9635 34.3164C37.9499 34.1994 37.9193 34.0378 37.8455 33.7583L37.8417 33.7441C37.8376 33.7289 37.8335 33.7133 37.8292 33.6973C37.8271 33.6897 37.8258 33.6817 37.8236 33.6738ZM37.3526 35.4177L37.3672 35.4323L37.3673 35.4031L37.3526 35.4177ZM36.5702 31.4169C36.8518 32.3741 37.1006 33.2868 37.316 34.1417L37.4081 34.5068L37.4063 34.5087C33.9951 28.1498 28.3717 19.0276 22.4407 12.0685C19.4453 8.55386 16.3566 5.57298 13.4211 3.78329C11.1738 2.41315 8.97276 1.71696 6.96238 2.06346C7.30771 1.86753 7.67218 1.68108 8.05658 1.50654L8.05873 1.51245C10.5064 0.629644 13.1953 1.3349 15.9845 3.16065C18.7717 4.98505 21.609 7.89785 24.3139 11.3231C29.2544 17.5793 33.7098 25.4889 36.5702 31.4169ZM35.3787 27.6933C33.6354 22.6443 31.1491 16.9405 27.9967 12.0705C23.6245 5.31597 18.0463 0.274425 11.4659 0.623625C13.0666 0.87272 14.6973 1.5934 16.3179 2.65417C19.1842 4.53031 22.0688 7.50086 24.7912 10.9483C28.8531 16.0919 32.5827 22.3345 35.3787 27.6933ZM0.840426 9.60651C0.695184 12.2623 1.71222 14.9049 3.47249 17.441C5.51897 20.3894 8.58981 23.2243 12.0912 25.8206C17.787 30.0439 24.6615 33.6645 30.2342 36.1371C24.7037 34.4445 18.0847 31.785 12.5037 28.2197C5.2538 23.5883 -0.135557 17.503 0.691919 10.1009L0.695849 10.1019C0.735813 9.94695 0.783925 9.7813 0.840426 9.60651ZM1.55759 8.42023L1.60105 8.42892C1.02389 11.2989 1.97845 14.2239 3.97204 17.0962C5.96577 19.9686 8.97885 22.7578 12.4537 25.3344C19.3781 30.4687 28.0769 34.7159 34.0007 37.0651L34.3677 37.1782C28.0586 33.8378 19.0792 28.3641 12.1832 22.5445C8.67 19.5795 5.67998 16.5104 3.86383 13.5744C2.49394 11.3599 1.76944 9.18164 2.03555 7.17029C1.7994 7.65649 1.64395 8.08542 1.55759 8.42023ZM3.14976 5.54072L3.16002 5.5458C2.05147 7.76771 2.61085 10.3949 4.3809 13.2564C6.14766 16.1125 9.08148 19.1331 12.5757 22.082C19.5564 27.9731 28.7038 33.52 35.0051 36.829L35.0501 36.8521L35.2447 36.6586C29.2291 32.2176 20.5869 25.3883 13.8179 19.0392C10.3786 15.8133 7.41093 12.7003 5.51831 10.081C4.57312 8.77291 3.88355 7.57111 3.54324 6.528C3.39821 6.08348 3.31331 5.65652 3.30389 5.25698C3.24584 5.3582 3.1942 5.45374 3.14976 5.54072ZM4.17853 4.21114C3.8494 4.70311 3.81513 5.40314 4.12097 6.34057C4.43295 7.29685 5.08105 8.43953 6.01121 9.72682C7.86929 12.2983 10.803 15.3796 14.2342 18.5979C21.0073 24.9508 29.6721 31.7944 35.6797 36.2259L36.2277 35.6809C31.7337 29.6224 24.8468 20.9406 18.4854 14.174C15.2489 10.7313 12.1597 7.79656 9.59743 5.95384C8.31451 5.03118 7.18171 4.39562 6.24118 4.1003C5.32056 3.81123 4.64552 3.86492 4.17853 4.21114ZM5.15193 3.30801C5.55012 3.30541 5.97773 3.38241 6.42365 3.52243C7.45494 3.84625 8.64925 4.52496 9.9528 5.46245C12.5635 7.34001 15.6847 10.309 18.9286 13.7596C25.2867 20.5227 32.1596 29.1826 36.6625 35.2484L36.9569 34.9556C33.5665 28.6122 27.9211 19.4344 21.9778 12.4608C18.9981 8.96462 15.9585 6.04039 13.1042 4.30019C10.2443 2.55655 7.64431 2.04267 5.47639 3.21099L5.42759 3.23729L5.37261 3.24469C5.30542 3.25374 5.23697 3.27073 5.16758 3.29502L5.15193 3.30801Z" fill="#FEFEFE"/>
<path d="M70.5156 11.5503C71.7089 10.3743 73.6322 10.3857 74.8115 11.5756L76.1653 12.9418L76.2022 12.905C77.1511 11.8884 78.913 9.5675 79.4542 7.19327C79.5376 6.82764 79.5958 6.64246 79.6332 6.60315C79.8508 6.00754 80.1992 5.44872 80.6783 4.97092L81.582 4.06981C83.3377 2.319 86.1842 2.319 87.9399 4.06981L88.6832 4.81106C90.4389 6.56187 90.4389 9.4005 88.6832 11.1513L87.7796 12.0524C87.3278 12.503 86.8037 12.8376 86.2446 13.0563C86.2347 13.0933 86.0514 13.1577 85.648 13.2562C83.6774 13.7374 81.7557 15.0658 80.5847 16.0581L79.9151 16.7258L81.4487 18.2733C82.6279 19.4633 82.6165 21.3812 81.4232 22.5572L53.2239 50.3467L42.2508 39.4042L70.5156 11.5503Z" fill="#FEFEFE"/>
</svg>
