<svg width="223" height="223" viewBox="0 0 223 223" fill="none" xmlns="http://www.w3.org/2000/svg">
<path d="M111.5 111.5C146.692 111.5 175.214 86.5432 175.214 55.75C175.214 24.9568 146.692 0 111.5 0C76.3078 0 47.7857 24.9568 47.7857 55.75C47.7857 86.5432 76.3078 111.5 111.5 111.5ZM156.1 125.438H147.787C136.737 129.88 124.442 132.406 111.5 132.406C98.558 132.406 86.313 129.88 75.2127 125.438H66.9C29.9656 125.438 0 151.657 0 183.975V202.094C0 213.636 10.702 223 23.8929 223H199.107C212.298 223 223 213.636 223 202.094V183.975C223 151.657 193.034 125.438 156.1 125.438Z" fill="#1F1F1F"/>
</svg>
